<?xml version="1.0" ?><svg height="128" viewBox="0 0 128 128" width="128" xmlns="http://www.w3.org/2000/svg"><defs><style>
      .cls-1 {
        fill: #e9faff;
      }

      .cls-2 {
        fill: #fff;
      }

      .cls-3 {
        fill: #e8f0fc;
      }

      .cls-4 {
        fill: #ffe5e1;
      }

      .cls-5 {
        fill: #d4e6ff;
      }

      .cls-6 {
        fill: #89d3ff;
      }

      .cls-7 {
        fill: #7bc3ff;
      }

      .cls-8 {
        fill: #c5d9f9;
      }

      .cls-10, .cls-12, .cls-9 {
        fill: none;
        stroke-width: 2px;
      }

      .cls-9 {
        stroke: #89d3ff;
      }

      .cls-10, .cls-9 {
        stroke-miterlimit: 10;
      }

      .cls-10, .cls-12 {
        stroke: #556193;
      }

      .cls-11 {
        fill: #556193;
      }

      .cls-12 {
        stroke-linejoin: round;
      }
    </style></defs><title/><g id="circle"><circle class="cls-1" cx="64.5" cy="64.5" r="57.5"/></g><g id="icon"><g><g><path class="cls-2" d="M64.53,122c18.47,0,31.12-7.33,41.37-17.55l-.79-8.31C103.5,86,96.35,78.45,86.82,74.71l-5.51-2a2.58,2.58,0,0,1-1.65-2.48c0-8.48,8.79-9.69,8.79-33.9,0,0,2.42-30.3-23.89-30.3h-.91C37.34,6,39.76,36.3,39.76,36.3c0,24.21,8.78,25.42,8.78,33.9a2.57,2.57,0,0,1-1.64,2.48l-5.51,2C31.86,78.45,24.71,86,23.1,96.14l-.94,7.45C33.4,114.67,46,122,64.53,122Z"/><path class="cls-3" d="M85.15,36.4c0,25.91-9.4,27.2-9.4,36.27a2.76,2.76,0,0,0,1.76,2.65l5.89,2.17c10.2,4,17.85,12.11,19.57,22.92l.67,7c1.12-1,2.22-2,3.26-3l-.79-8.31C104.5,86,97.35,78.45,87.82,74.71l-5.51-2a2.58,2.58,0,0,1-1.65-2.48c0-8.48,8.79-9.69,8.79-33.9,0,0,2-25.3-17.74-29.65C86.89,14.37,85.15,36.4,85.15,36.4Z"/><path class="cls-4" d="M51,26s-5,4.2-5,5.63V47.08a12,12,0,0,0,3.5,8.46l6,6a12.21,12.21,0,0,0,17.41-.14l5.71-5.89A12,12,0,0,0,82,47.19V31.63c0-6.89-10.66-6.46-10.66-6.46S55,24,51,26Z"/><path class="cls-5" d="M83,32H46l-.07,10s3.16,4,8,4,5.17-4,10-4,6.17,4,11,4,8-5.26,8-5.26Z"/><path class="cls-6" d="M55.28,61.87a12.44,12.44,0,0,0,16.11,1.21,5.17,5.17,0,0,0,.83-.72l8.34-8.6A5.14,5.14,0,0,0,82,50.2v-8a13,13,0,0,1-7.72,2.95c-5.41,0-5-2.23-10.42-2.23S58,45.16,52.62,45.16c-2.88,0-5-3.14-6.69-4.34l-.26,9.33a5.12,5.12,0,0,0,1.5,3.62Z"/><polygon class="cls-3" points="44 117.45 42 117.07 42 104 44 104 44 117.45"/><polygon class="cls-3" points="84 117.45 86 117.07 86 104 84 104 84 117.45"/><path class="cls-7" d="M79.24,44.47l-.76,3.78C77,53.58,70.3,60.8,70.3,60.8a5.64,5.64,0,0,1-.82.72,12.39,12.39,0,0,1-11.22,1.7A12.3,12.3,0,0,0,72.43,63a5.57,5.57,0,0,0,.82-.71S80,55.05,81.43,49.72l1.47-7.37A15.16,15.16,0,0,1,79.24,44.47Z"/><path class="cls-8" d="M75,42c-4.84,0-6.16-4-11-4s-5.17,4-10,4c-4.61,0-7.68-3.6-8-4l0,4s3.16,4,8,4,5.16-4,10-4,6.16,4,11,4,8-5.25,8-5.25v-4S79.84,42,75,42Z"/></g><g><path class="cls-9" d="M48.26,71S53.45,76.69,64,76.69"/><path class="cls-9" d="M79.82,71s-5.18,5.71-15.73,5.71"/><line class="cls-9" x1="64" x2="64" y1="25" y2="6"/><line class="cls-9" x1="64" x2="64" y1="122" y2="66"/><line class="cls-10" x1="41" x2="41" y1="104" y2="117"/><circle class="cls-11" cx="73" cy="39" r="2"/><circle class="cls-11" cx="55" cy="39" r="2"/><line class="cls-10" x1="87" x2="87" y1="104" y2="117"/><path class="cls-12" d="M105.85,104.78l-.74-8.64C103.5,86,96.35,78.45,86.82,74.71l-5.51-2a2.58,2.58,0,0,1-1.65-2.48c0-8.48,8.79-5.12,8.79-33.9,0,0,2.42-30.3-23.89-30.3h-.91C37.34,6,39.76,36.3,39.76,36.3c0,28.78,8.78,25.42,8.78,33.9a2.57,2.57,0,0,1-1.64,2.48l-5.51,2C31.86,78.45,24.71,86,23.1,96.14l-.74,8.64"/><path class="cls-10" d="M54,25a8,8,0,0,0-8,8V47.08c0,7,9.51,14.6,9.51,14.6a12.14,12.14,0,0,0,17.41-.14S82,54.06,82,47.19V33a8,8,0,0,0-8-8Z"/><line class="cls-12" x1="46" x2="82" y1="32" y2="32"/><line class="cls-12" x1="52" x2="58" y1="37" y2="37"/><line class="cls-12" x1="70" x2="76" y1="37" y2="37"/><path class="cls-10" d="M46,41.77s3.42,4.06,8.27,4.06,4.84-3.64,9.68-3.64,4.85,3.64,9.69,3.64,8.48-4.06,8.48-4.06"/></g></g></g></svg>